<svg width="40" height="40" viewBox="0 0 40 40" fill="none" xmlns="http://www.w3.org/2000/svg">
<rect width="40" height="40" rx="6" fill="#0C1B4D" fill-opacity="0.1"/>
<path d="M25 10H15C12.2386 10 10 12.2386 10 15V25C10 27.7614 12.2386 30 15 30H25C27.7614 30 30 27.7614 30 25V15C30 12.2386 27.7614 10 25 10Z" stroke="#0C1B4D" stroke-width="2" stroke-linecap="round" stroke-linejoin="round"/>
<path d="M24 19.3698C24.1234 20.2021 23.9813 21.052 23.5938 21.7988C23.2063 22.5456 22.5932 23.1512 21.8416 23.5295C21.0901 23.9077 20.2385 24.0394 19.4078 23.9057C18.5771 23.7721 17.8098 23.3799 17.2149 22.785C16.6199 22.1901 16.2277 21.4227 16.0941 20.592C15.9604 19.7614 16.0921 18.9097 16.4703 18.1582C16.8486 17.4067 17.4542 16.7936 18.201 16.4061C18.9478 16.0186 19.7978 15.8764 20.63 15.9998C21.4789 16.1257 22.2649 16.5213 22.8717 17.1281C23.4785 17.735 23.8741 18.5209 24 19.3698Z" stroke="#0C1B4D" stroke-width="2" stroke-linecap="round" stroke-linejoin="round"/>
<path d="M25.5 14.5H25.51" stroke="#0C1B4D" stroke-width="2" stroke-linecap="round" stroke-linejoin="round"/>
</svg>
